<svg xmlns="http://www.w3.org/2000/svg" xmlns:xlink="http://www.w3.org/1999/xlink" xmlns:svgjs="http://svgjs.com/svgjs">
<style>
  @media (prefers-color-scheme: dark) {
    path {
      stroke: #fff;
    }
  }
</style>
<svg viewBox="0 0 107 96" xmlns="http://www.w3.org/2000/svg" xml:space="preserve" style="fill-rule:evenodd;clip-rule:evenodd;stroke-linecap:round;stroke-linejoin:round;stroke-miterlimit:1.5"><path d="M22.497 71.5c-1.857-2.318-3.213-4.775-3.704-7.786-.605-3.702.097-8.34 3.222-14.776 4.37-9 9.477-14.273 14.083-20.103C45.67 16.72 45.539 7.98 45.539 7.98a2.637 2.637 0 0 1 4.926-1.396s4.452 7.476 19.247 13.244c2.94 1.147 10.419 2.22 17.278 4.936 5.088 2.015 9.812 4.92 12.587 9.126a2.638 2.638 0 0 1-4.402 2.904c-2.805-4.251-8.224-6.633-13.414-8.295-5.83-1.866-11.489-2.792-13.965-3.757-9.01-3.514-14.622-7.665-17.909-10.794-1.165 4.355-3.783 10.73-9.651 18.157-4.393 5.558-9.31 10.554-13.477 19.137-2.469 5.083-3.24 8.698-2.762 11.621.3 1.84 1.103 3.363 2.175 4.79C33.51 60.69 44.636 53.84 59.519 49.885c9.814-2.608 25.91-5.267 35.277-4.443 2.81.247 5.084.834 6.598 1.695 1.544.88 2.47 2.068 2.841 3.447.679 2.522-.303 5.805-3.315 9.188-5.456 6.127-17.93 13.36-34.139 17.68-13.91 3.706-26.622 2.87-34.543.393-2.443-.764-4.461-1.705-5.995-2.715-2.81 3.314-4.326 6.213-6.023 9.581-3.384 6.716-3.445 10.747-4.165 10.892-1.427.288-.51-9.29.65-13.283 1.148-3.951 2.405-6.308 5.792-10.82Zm7.448-.244c1.733.965 4.186 1.78 7.143 2.401 7.253 1.524 17.39 1.615 28.335-1.302 12.882-3.432 23.275-8.734 29.16-13.769 1.769-1.512 3.108-2.975 3.911-4.35.5-.855.83-1.606.649-2.283-.022-.08-.13-.088-.212-.143a3.418 3.418 0 0 0-.558-.29c-1.024-.435-2.41-.681-4.04-.824-8.886-.783-24.149 1.811-33.46 4.286-13.783 3.662-24.137 9.911-30.928 16.274Z"/><path d="M30.489 88.425c-4.322-3.603-4.988 1.198-5.834-.062-.532-.793 1.789-5.287 2.03-5.794.389-.814.392-.778 1.126-.465 8.856 3.775 24.068 6.354 41.158 1.285 28.08-8.33 32.977-16.117 36.918-23.384.694-1.28-.2 3.132-4.069 9.287-1.764 2.806-3.959 5.06-5.621 7.763-1.662 2.703-4.354 8.464-4.354 8.464-.305.55-.957.808-1.556.615 0 0-5.186-1.866-7.843-1.612-3.146.299-8.187 1.887-11.028 3.408-2.439 1.305-6.017 5.716-6.017 5.716a1.319 1.319 0 0 1-1.632.374s-5.415-3.11-8.335-3.63c-2.92-.519-6.355-.323-9.183.512-2.828.835-7.783 4.499-7.783 4.499a1.319 1.319 0 0 1-1.66-.21s-4.246-5.04-6.317-6.766ZM2.976 68.092a1.318 1.318 0 0 1-.595-1.564c.498-1.107.998-2.217 1.396-3.364 1.425-4.098 2.224-5.527 1.729-9.608-.242-1.992-1.737-4.274-3.147-5.752-.86-.9-1.552-2.046-2.2-3.017a1.318 1.318 0 0 1 .319-1.642c.895-.57 1.793-1.143 2.61-1.82 3.526-2.919 4.39-3.572 6.18-7.754 1.834-4.282 1.682-5.333 1.334-10.044-.082-1.097-.298-2.18-.513-3.259-.046-.627.357-1.2.964-1.368 1.121-.148 2.25-.296 3.34-.598 4.693-1.296 4.947-1.73 6.545-3.65 1.752-2.104 2.559-4.872 3.963-8.975.355-1.036.599-2.109.842-3.177.203-.595.8-.964 1.423-.88 1.207.292 2.406.686 3.644.77 5.797.394 5.786-.15 10.458-1.62 2.929-.92 6.408-.927 5.607-.488-1.754.962-3.923 1.517-4.314 2.066-4.021 5.644-4.121 12.884-8.297 18.574-4.502 6.136-8.592 10.743-8.592 10.743s-6.458 8.95-8.389 12.492c-3.754 6.89-5.495 14.004-4.53 19.375 1.471 8.197 4.733 8.747 3.243 10.505-2.188 2.582-3.098 5.887-3.742 5.56-2.686-1.365.624-5.75-.394-6.993-2.56-3.123-8.884-4.512-8.884-4.512Z"/><path d="M393.633 88.992v36.154-36.154Z" style="fill:none;stroke:#000;stroke-width:9.48px" transform="scale(.52735) rotate(-15 -7.792 1195.454)"/><path d="m381.017 117.765 12.616-32.773 13.102 32.773" style="fill:none;stroke:#000;stroke-width:9.48px" transform="scale(.52735) rotate(-15 7.4 1193.454)"/><g><path d="m157.266 394.713 23.69-23.689" style="fill:none;stroke:#000;stroke-width:1px" transform="rotate(-32.894 -458.014 456.94)"/><path d="m157.266 394.713 23.69-23.689" style="fill:none;stroke:#000;stroke-width:1px" transform="rotate(-32.894 -456.258 450.99)"/><path d="m157.266 394.713 23.69-23.689" style="fill:none;stroke:#000;stroke-width:.87px" transform="rotate(-32.894 -550.89 511.018) scale(1.15092)"/><path d="m157.266 394.713 23.69-23.689" style="fill:none;stroke:#000;stroke-width:.83px" transform="scale(1.20121) rotate(-32.894 -485.112 438.105)"/><path d="m157.266 394.713 23.69-23.689" style="fill:none;stroke:#000;stroke-width:.84px" transform="rotate(-32.894 -580.828 514.98) scale(1.19433)"/><path d="m157.266 394.713 23.69-23.689" style="fill:none;stroke:#000;stroke-width:.84px" transform="rotate(-32.894 -584.645 506.7) scale(1.19522)"/><path d="m157.266 394.713 23.69-23.689" style="fill:none;stroke:#000;stroke-width:.97px" transform="rotate(-32.894 -484.593 423.478) scale(1.02859)"/><path d="m157.266 394.713 23.69-23.689" style="fill:none;stroke:#000;stroke-width:.85px" transform="scale(1.175) rotate(-32.894 -487.778 411.3)"/><path d="m157.266 394.713 23.69-23.689" style="fill:none;stroke:#000;stroke-width:.96px" transform="matrix(.87315 -.56473 .56473 .87315 -304.022 -200.537)"/><path d="m157.266 394.713 23.69-23.689" style="fill:none;stroke:#000;stroke-width:.98px" transform="scale(1.016) rotate(-32.894 -469.559 390.719)"/><path d="m157.266 394.713 23.69-23.689" style="fill:none;stroke:#000;stroke-width:1.18px" transform="rotate(-32.894 -382.019 312.287) scale(.85097)"/><path d="m157.266 394.713 23.69-23.689" style="fill:none;stroke:#000;stroke-width:1.24px" transform="matrix(.67549 -.4369 .4369 .67549 -210.894 -147.484)"/><path d="m157.266 394.713 23.69-23.689" style="fill:none;stroke:#000;stroke-width:1.24px" transform="scale(.80446) rotate(-32.894 -439.41 344.958)"/><path d="m157.266 394.713 23.69-23.689" style="fill:none;stroke:#000;stroke-width:1.43px" transform="matrix(.58875 -.3808 .3808 .58875 -168.084 -122.07)"/><path d="m157.266 394.713 23.69-23.689" style="fill:none;stroke:#000;stroke-width:1.3px" transform="rotate(-32.894 -327.516 247.952) scale(.76639)"/><path d="m157.266 394.713 23.69-23.689" style="fill:none;stroke:#000;stroke-width:1.63px" transform="matrix(.51515 -.3332 .3332 .51515 -130.333 -102.191)"/><path d="m157.266 394.713 23.69-23.689" style="fill:none;stroke:#000;stroke-width:1.78px" transform="rotate(-32.894 -206.181 139.876) scale(.56213)"/><path d="m157.266 394.713 23.69-23.689" style="fill:none;stroke:#000;stroke-width:2.25px" transform="rotate(-32.894 -138.263 77.62) scale(.4445)"/><path d="m157.266 394.713 23.69-23.689" style="fill:none;stroke:#000;stroke-width:1.97px" transform="rotate(-32.894 -169.929 102.239) scale(.50663)"/><path d="m157.266 394.713 23.69-23.689" style="fill:none;stroke:#000;stroke-width:5.2px" transform="rotate(-32.894 14.133 -51.316) scale(.19226)"/><path d="m157.266 394.713 23.69-23.689" style="fill:none;stroke:#000;stroke-width:7.79px" transform="matrix(.10781 -.06973 .06973 .10781 55.604 16.217)"/></g></svg><style>@media (prefers-color-scheme:light){:root{filter:none}}</style></svg>
