<svg viewBox="0 0 751 98" xmlns="http://www.w3.org/2000/svg" xml:space="preserve" style="fill-rule:evenodd;clip-rule:evenodd;stroke-linecap:round;stroke-linejoin:round;stroke-miterlimit:1.5"><path d="M22.497 71.788c-1.857-2.318-3.213-4.775-3.704-7.786-.605-3.702.097-8.34 3.222-14.776 4.37-9 9.477-14.273 14.083-20.103 9.573-12.116 9.441-20.855 9.441-20.855a2.637 2.637 0 0 1 4.926-1.396s4.452 7.476 19.247 13.244c2.94 1.147 10.419 2.22 17.278 4.936 5.088 2.015 9.812 4.92 12.587 9.126a2.638 2.638 0 0 1-4.402 2.904c-2.805-4.251-8.224-6.633-13.414-8.295-5.83-1.866-11.489-2.792-13.965-3.757-9.01-3.514-14.622-7.665-17.909-10.794-1.165 4.355-3.783 10.73-9.651 18.157-4.393 5.558-9.31 10.554-13.477 19.137-2.469 5.083-3.24 8.698-2.762 11.621.3 1.84 1.103 3.363 2.175 4.79 7.339-6.962 18.464-13.813 33.347-17.768 9.814-2.608 25.91-5.267 35.277-4.443 2.81.247 5.084.834 6.598 1.695 1.544.88 2.47 2.068 2.841 3.447.679 2.522-.303 5.805-3.315 9.188-5.456 6.127-17.93 13.36-34.139 17.68-13.91 3.706-26.622 2.87-34.543.393-2.443-.764-4.461-1.705-5.995-2.715-2.81 3.314-4.326 6.213-6.023 9.581-3.384 6.716-3.445 10.747-4.165 10.892-1.427.288-.51-9.29.65-13.283 1.148-3.951 2.405-6.308 5.792-10.82Zm7.448-.244c1.733.965 4.186 1.78 7.143 2.401 7.253 1.524 17.39 1.615 28.335-1.302 12.882-3.432 23.275-8.734 29.16-13.769 1.769-1.512 3.108-2.975 3.911-4.35.5-.855.83-1.606.649-2.283-.022-.08-.13-.088-.212-.143a3.418 3.418 0 0 0-.558-.29c-1.024-.435-2.41-.681-4.04-.824-8.886-.783-24.149 1.811-33.46 4.286-13.783 3.662-24.137 9.911-30.928 16.274Z"/><path d="M30.489 88.713c-4.322-3.603-4.988 1.198-5.834-.062-.532-.793 1.789-5.287 2.03-5.794.389-.814.392-.778 1.126-.465 8.856 3.775 24.068 6.354 41.158 1.285 28.08-8.33 32.977-16.117 36.918-23.384.694-1.28-.2 3.132-4.069 9.287-1.764 2.806-3.959 5.06-5.621 7.763-1.662 2.703-4.354 8.464-4.354 8.464-.305.55-.957.808-1.556.615 0 0-5.186-1.866-7.843-1.612-3.146.299-8.187 1.887-11.028 3.408-2.439 1.305-6.017 5.716-6.017 5.716a1.319 1.319 0 0 1-1.632.374s-5.415-3.11-8.335-3.63c-2.92-.519-6.355-.323-9.183.512-2.828.835-7.783 4.499-7.783 4.499a1.319 1.319 0 0 1-1.66-.21s-4.246-5.04-6.317-6.766ZM2.976 68.38a1.318 1.318 0 0 1-.595-1.564c.498-1.107.998-2.217 1.396-3.364 1.425-4.098 2.224-5.527 1.729-9.608-.242-1.992-1.737-4.274-3.147-5.752-.86-.9-1.552-2.046-2.2-3.017a1.318 1.318 0 0 1 .319-1.642c.895-.57 1.793-1.143 2.61-1.82 3.526-2.919 4.39-3.572 6.18-7.754 1.834-4.282 1.682-5.333 1.334-10.044-.082-1.097-.298-2.18-.513-3.259-.046-.627.357-1.2.964-1.368 1.121-.148 2.25-.296 3.34-.598 4.693-1.296 4.947-1.73 6.545-3.65 1.752-2.104 2.559-4.872 3.963-8.975.355-1.036.599-2.109.842-3.177.203-.595.8-.964 1.423-.88 1.207.292 2.406.686 3.644.77 5.797.394 5.786-.15 10.458-1.62 2.929-.92 6.408-.927 5.607-.488-1.754.962-3.923 1.517-4.314 2.066C38.54 8.28 38.44 15.52 34.264 21.21c-4.502 6.136-8.592 10.743-8.592 10.743s-6.458 8.95-8.389 12.492c-3.754 6.89-5.495 14.004-4.53 19.375 1.471 8.197 4.733 8.747 3.243 10.505-2.188 2.582-3.098 5.887-3.742 5.56-2.686-1.365.624-5.75-.394-6.993C9.3 69.77 2.976 68.38 2.976 68.38Z"/><path d="M393.633 88.992v36.154-36.154Z" style="fill:none;stroke:currentColor;stroke-width:9.48px" transform="scale(.52735) rotate(-15 -5.718 1195.727)"/><path d="m381.017 117.765 12.616-32.773 13.102 32.773" style="fill:none;stroke:currentColor;stroke-width:9.48px" transform="scale(.52735) rotate(-15 9.473 1193.727)"/><path d="M340.784 117.302c2.115 0 4.099-1.586 6.029-4.572V79.885h-2.988v25.567c-.846 1.306-1.825 1.866-2.882 1.866-4.337 0-7.193-9.331-7.193-25.1 0-16.143 3.2-24.914 7.325-24.914 2.036 0 3.834 1.586 5.341 4.945V51.705c-1.771-2.986-3.702-4.385-5.764-4.385-5.976 0-9.969 13.343-9.969 34.898 0 21.927 4.125 35.084 10.101 35.084ZM351.599 115.902h2.988l.027-21.274c0-8.585 1.427-14.836 4.257-14.836V68.035c-2.089 0-3.887 4.198-4.654 9.704h-.132c-.133-6.065-.714-9.798-2.486-9.798-.529 0-1.163.467-1.613 1.12v7.371c.212-.093.397-.28.608-.28.846 0 1.005 1.96 1.005 8.305v31.445ZM368.231 117.302c4.311 0 7.087-9.704 7.087-24.727 0-15.116-2.803-24.634-7.087-24.634-4.31 0-7.139 9.518-7.139 24.634 0 15.023 2.803 24.727 7.139 24.727Zm0-9.424c-2.353 0-4.045-5.785-4.045-15.303 0-9.424 1.613-15.116 3.993-15.116 2.432 0 4.072 5.692 4.072 15.116 0 9.518-1.613 15.303-4.02 15.303ZM384.282 117.209c2.089 0 3.887-3.733 4.654-9.145h.159c.105 5.972.793 9.238 2.459 9.238.529 0 1.163-.466 1.613-1.026v-7.465c-.212.187-.397.28-.608.28-.82 0-1.005-1.96-1.005-8.305V69.341h-2.988l-.027 23.887c0 8.771-1.48 14.463-3.702 14.463-2.327 0-3.067-6.158-3.067-14.276V69.341h-2.988v25.007c0 15.209 1.904 22.861 5.5 22.861ZM397.265 135.964h2.988v-25.007h.159c.688 3.266 2.168 6.345 4.019 6.345 3.782 0 6.347-10.264 6.347-24.914 0-14.183-2.433-24.54-6.188-24.54-2.089 0-3.861 2.986-4.707 8.771h-.158c-.106-5.505-.767-8.678-2.46-8.678-.528 0-1.163.467-1.613 1.12v7.371c.212-.093.397-.28.609-.28.846 0 1.004 1.96 1.004 8.305v51.507Zm6.637-27.993c-2.353 0-3.834-5.972-3.834-15.209 0-9.331 1.428-15.583 3.808-15.583 2.274 0 3.808 6.252 3.808 15.396 0 9.424-1.587 15.396-3.782 15.396ZM421.037 117.395c1.613 0 2.935-.839 4.522-3.265v-8.398c-1.56 2.146-3.253 2.706-4.337 2.706-3.252 0-4.548-6.065-4.548-12.317h9.546c.053-1.4.159-3.733.159-6.625 0-12.784-2.195-21.648-6.188-21.648-3.861 0-6.611 9.704-6.611 24.54 0 15.117 2.592 25.007 7.457 25.007Zm-4.389-28.552c0-6.719 1.507-12.037 3.49-12.037 2.195 0 3.2 4.479 3.2 10.264 0 .373 0 1.306-.027 1.773h-6.663ZM430.609 115.902h2.988l.027-23.887c0-8.771 1.269-14.463 3.437-14.463 2.089 0 2.883 6.159 2.883 14.277v24.073h2.988v-23.98c0-8.771 1.401-14.37 3.331-14.37 2.222 0 2.988 6.159 2.988 14.277v24.073h2.988V90.895c0-15.116-2.062-22.86-5.605-22.86-1.878 0-3.676 4.012-4.443 9.424h-.158c-.82-6.159-2.354-9.424-4.416-9.424-2.063 0-3.596 3.732-4.39 9.144h-.132c-.132-6.159-.793-9.238-2.486-9.238-.528 0-1.163.467-1.613 1.12v7.371c.212-.093.397-.28.609-.28.846 0 1.004 1.96 1.004 8.305v31.445ZM463.187 117.395c1.613 0 2.935-.839 4.521-3.265v-8.398c-1.56 2.146-3.252 2.706-4.336 2.706-3.253 0-4.548-6.065-4.548-12.317h9.545c.053-1.4.159-3.733.159-6.625 0-12.784-2.195-21.648-6.188-21.648-3.86 0-6.61 9.704-6.61 24.54 0 15.117 2.591 25.007 7.457 25.007Zm-4.39-28.552c0-6.719 1.507-12.037 3.491-12.037 2.194 0 3.199 4.479 3.199 10.264 0 .373 0 1.306-.026 1.773h-6.664ZM472.759 115.902h2.988l.026-23.887c0-8.771 1.508-14.463 3.702-14.463 2.327 0 3.068 6.159 3.068 14.277v24.073h2.988V90.895c0-15.116-1.904-22.86-5.5-22.86-2.089 0-3.861 3.732-4.654 9.144h-.133c-.132-5.972-.766-9.238-2.485-9.238-.529 0-1.164.467-1.613 1.12v7.371c.211-.093.396-.28.608-.28.846 0 1.005 1.96 1.005 8.305v31.445ZM495.87 108.251c-1.587 0-2.354-2.239-2.354-10.264V78.579h3.332v-9.331h-3.332V58.237h-2.247c-.133 1.96-.476 5.972-.635 11.011h-1.613v9.331h1.507v21.554c0 13.717 2.327 17.169 4.443 17.169.687 0 1.745-.56 2.379-1.4v-8.304c-.37.373-1.137.653-1.48.653ZM517.156 117.395c1.745 0 3.173-.746 4.548-2.986v-10.544c-1.243 2.706-2.935 3.546-4.548 3.546-4.099 0-7.087-9.237-7.087-25.1 0-15.489 2.856-25.007 7.034-25.007 1.454 0 3.226.653 4.548 3.546V50.212c-1.56-2.239-2.961-2.892-4.495-2.892-6.214 0-10.181 14.09-10.181 34.991 0 20.808 4.152 35.084 10.181 35.084ZM530.642 117.209c2.089 0 3.887-3.733 4.653-9.145h.159c.106 5.972.793 9.238 2.459 9.238.529 0 1.164-.466 1.613-1.026v-7.465c-.211.187-.396.28-.608.28-.82 0-1.005-1.96-1.005-8.305V69.341h-2.988l-.026 23.887c0 8.771-1.481 14.463-3.702 14.463-2.327 0-3.067-6.158-3.067-14.276V69.341h-2.988v25.007c0 15.209 1.903 22.861 5.5 22.861ZM545.899 117.302c.714 0 1.137-.466 1.586-1.026v-8.398c-.211.186-.396.28-.608.28-.819 0-.899-1.773-.899-8.025l-.026-54.679h-2.988v57.478c0 10.544.793 14.37 2.935 14.37ZM558.195 108.251c-1.587 0-2.354-2.239-2.354-10.264V78.579h3.332v-9.331h-3.332V58.237h-2.247c-.133 1.96-.476 5.972-.635 11.011h-1.613v9.331h1.507v21.554c0 13.717 2.327 17.169 4.443 17.169.687 0 1.745-.56 2.379-1.4v-8.304c-.37.373-1.137.653-1.48.653ZM569.353 117.209c2.089 0 3.888-3.733 4.654-9.145h.159c.106 5.972.793 9.238 2.459 9.238.529 0 1.164-.466 1.613-1.026v-7.465c-.211.187-.396.28-.608.28-.82 0-1.005-1.96-1.005-8.305V69.341h-2.988l-.026 23.887c0 8.771-1.481 14.463-3.702 14.463-2.327 0-3.068-6.158-3.068-14.276V69.341h-2.988v25.007c0 15.209 1.904 22.861 5.5 22.861ZM582.337 115.902h2.988l.026-21.274c0-8.585 1.428-14.836 4.257-14.836V68.035c-2.089 0-3.887 4.198-4.653 9.704h-.133c-.132-6.065-.714-9.798-2.485-9.798-.529 0-1.164.467-1.613 1.12v7.371c.211-.093.396-.28.608-.28.846 0 1.005 1.96 1.005 8.305v31.445ZM599.313 117.395c1.613 0 2.935-.839 4.522-3.265v-8.398c-1.561 2.146-3.253 2.706-4.337 2.706-3.252 0-4.548-6.065-4.548-12.317h9.546c.052-1.4.158-3.733.158-6.625 0-12.784-2.194-21.648-6.187-21.648-3.861 0-6.611 9.704-6.611 24.54 0 15.117 2.591 25.007 7.457 25.007Zm-4.39-28.552c0-6.719 1.508-12.037 3.491-12.037 2.195 0 3.199 4.479 3.199 10.264 0 .373 0 1.306-.026 1.773h-6.664ZM611.159 117.302c.714 0 1.137-.466 1.587-1.026v-8.398c-.212.186-.397.28-.608.28-.82 0-.9-1.773-.9-8.025l-.026-54.679h-2.988v57.478c0 10.544.793 14.37 2.935 14.37ZM623.984 115.902h6.478c4.125 0 6.981-4.758 6.981-18.475 0-8.771-1.401-13.716-3.675-15.769v-.56c1.956-1.96 2.935-7.745 2.935-15.396 0-10.078-1.56-16.983-6.267-16.983h-6.452v67.183Zm3.014-38.723V57.957h3.12c2.274 0 3.517 2.799 3.517 9.331 0 6.438-1.348 9.891-3.173 9.891h-3.464Zm-.026 29.486V86.23h3.543c2.406 0 3.861 3.546 3.861 10.357 0 8.212-1.587 10.078-3.993 10.078h-3.411ZM641.859 115.902h2.988l.026-21.274c0-8.585 1.428-14.836 4.258-14.836V68.035c-2.089 0-3.887 4.198-4.654 9.704h-.132c-.133-6.065-.714-9.798-2.486-9.798-.529 0-1.164.467-1.613 1.12v7.371c.211-.093.397-.28.608-.28.846 0 1.005 1.96 1.005 8.305v31.445ZM658.835 117.395c1.613 0 2.935-.839 4.522-3.265v-8.398c-1.56 2.146-3.253 2.706-4.337 2.706-3.252 0-4.548-6.065-4.548-12.317h9.546c.053-1.4.158-3.733.158-6.625 0-12.784-2.194-21.648-6.187-21.648-3.861 0-6.611 9.704-6.611 24.54 0 15.117 2.592 25.007 7.457 25.007Zm-4.389-28.552c0-6.719 1.507-12.037 3.49-12.037 2.195 0 3.2 4.479 3.2 10.264 0 .373 0 1.306-.027 1.773h-6.663ZM673.802 108.251c-1.587 0-2.354-2.239-2.354-10.264V78.579h3.332v-9.331h-3.332V58.237h-2.247c-.133 1.96-.476 5.972-.635 11.011h-1.613v9.331h1.507v21.554c0 13.717 2.327 17.169 4.442 17.169.688 0 1.746-.56 2.38-1.4v-8.304c-.37.373-1.137.653-1.48.653ZM684.828 117.302c4.31 0 7.087-9.704 7.087-24.727 0-15.116-2.803-24.634-7.087-24.634-4.31 0-7.139 9.518-7.139 24.634 0 15.023 2.802 24.727 7.139 24.727Zm0-9.424c-2.353 0-4.046-5.785-4.046-15.303 0-9.424 1.613-15.116 3.993-15.116 2.433 0 4.072 5.692 4.072 15.116 0 9.518-1.613 15.303-4.019 15.303ZM696.145 115.902h2.988l.027-23.887c0-8.771 1.507-14.463 3.702-14.463 2.327 0 3.067 6.159 3.067 14.277v24.073h2.988V90.895c0-15.116-1.904-22.86-5.5-22.86-2.089 0-3.86 3.732-4.654 9.144h-.132c-.132-5.972-.767-9.238-2.486-9.238-.528 0-1.163.467-1.613 1.12v7.371c.212-.093.397-.28.609-.28.846 0 1.004 1.96 1.004 8.305v31.445ZM336.712 236.745c2.062 0 3.834-2.986 4.68-8.771h.159c.132 5.505.793 8.678 2.459 8.678.555 0 1.164-.467 1.64-1.027v-7.464c-.212.186-.424.279-.609.279-.846 0-1.031-1.959-1.031-8.304v-55.333h-2.988v28.833h-.132c-.688-3.266-2.195-6.345-4.019-6.345-3.808 0-6.347 10.264-6.347 24.914 0 14.276 2.433 24.54 6.188 24.54Zm.714-9.331c-2.301 0-3.834-6.158-3.834-15.396 0-9.424 1.586-15.396 3.781-15.396 2.353 0 3.834 5.972 3.834 15.209 0 9.331-1.401 15.583-3.781 15.583ZM355.724 236.745c1.613 0 2.935-.84 4.522-3.266v-8.398c-1.56 2.146-3.253 2.706-4.337 2.706-3.252 0-4.548-6.065-4.548-12.317h9.546c.053-1.399.159-3.732.159-6.625 0-12.783-2.195-21.647-6.188-21.647-3.861 0-6.611 9.704-6.611 24.54 0 15.116 2.592 25.007 7.457 25.007Zm-4.389-28.553c0-6.718 1.507-12.037 3.49-12.037 2.195 0 3.2 4.479 3.2 10.264 0 .374 0 1.307-.027 1.773h-6.663ZM369.527 236.652c4.39 0 5.844-7.185 5.844-14.837 0-10.264-2.671-12.69-4.839-14.463-1.983-1.493-3.385-2.426-3.385-6.718 0-3.639 1.032-4.945 2.486-4.945 1.428 0 3.437 1.586 4.707 3.359v-9.238c-1.349-1.586-3.253-2.612-4.839-2.612-3.464 0-5.474 5.598-5.474 13.996 0 9.984 2.539 12.69 4.839 14.556 1.798 1.493 3.358 2.613 3.358 6.999 0 3.359-.952 5.412-2.644 5.412-1.877 0-4.337-2.706-5.579-5.412l-.027 9.424c.661 1.306 2.882 4.479 5.553 4.479ZM386.424 235.252h2.988v-21.275h3.199c5.183 0 7.616-8.211 7.616-22.86 0-14.09-2.248-23.048-7.616-23.048h-6.187v67.183Zm2.988-30.699v-27.06h3.252c3.2 0 4.496 5.412 4.496 13.624 0 8.771-1.296 13.436-4.496 13.436h-3.252ZM409.006 236.745c2.062 0 3.834-2.986 4.68-8.771h.159c.132 5.505.793 8.678 2.459 8.678.555 0 1.163-.467 1.639-1.027v-7.464c-.211.186-.423.279-.608.279-.846 0-1.031-1.959-1.031-8.304v-31.539h-1.93c-.212 2.706-.397 4.572-.503 7.092h-.158c-.741-4.666-2.354-8.398-4.548-8.398-3.808 0-6.347 10.264-6.347 24.914 0 14.276 2.433 24.54 6.188 24.54Zm.714-9.331c-2.301 0-3.834-6.158-3.834-15.396 0-9.424 1.586-15.396 3.781-15.396 2.353 0 3.861 5.692 3.861 15.209 0 9.331-1.428 15.583-3.808 15.583ZM426.749 256.713c5.896 0 7.245-12.317 7.245-28.273v-39.749h-2.988l-.026 23.887c-.027 9.051-1.455 14.463-3.676 14.463-2.327 0-3.067-6.159-3.067-14.277v-24.073h-2.988v25.007c0 15.209 1.904 22.954 5.5 22.954 1.851 0 3.358-2.613 4.125-6.159h.132v1.96c0 11.01-1.745 14.929-4.257 14.929-1.693 0-3.464-1.026-4.707-3.266v9.331c1.375 2.147 3.094 3.266 4.707 3.266ZM443.355 236.652c4.389 0 5.844-7.185 5.844-14.837 0-10.264-2.671-12.69-4.839-14.463-1.984-1.493-3.385-2.426-3.385-6.718 0-3.639 1.031-4.945 2.485-4.945 1.428 0 3.438 1.586 4.707 3.359v-9.238c-1.348-1.586-3.252-2.612-4.839-2.612-3.464 0-5.473 5.598-5.473 13.996 0 9.984 2.538 12.69 4.839 14.556 1.798 1.493 3.358 2.613 3.358 6.999 0 3.359-.952 5.412-2.644 5.412-1.878 0-4.337-2.706-5.58-5.412l-.026 9.424c.661 1.306 2.882 4.479 5.553 4.479ZM465.091 236.745c2.062 0 3.834-2.986 4.68-8.771h.158c.133 5.505.794 8.678 2.46 8.678.555 0 1.163-.467 1.639-1.027v-7.464c-.211.186-.423.279-.608.279-.846 0-1.031-1.959-1.031-8.304v-55.333h-2.988v28.833h-.133c-.687-3.266-2.194-6.345-4.019-6.345-3.808 0-6.346 10.264-6.346 24.914 0 14.276 2.433 24.54 6.188 24.54Zm.713-9.331c-2.3 0-3.834-6.158-3.834-15.396 0-9.424 1.587-15.396 3.782-15.396 2.353 0 3.834 5.972 3.834 15.209 0 9.331-1.402 15.583-3.782 15.583ZM484.103 236.745c1.613 0 2.935-.84 4.521-3.266v-8.398c-1.56 2.146-3.252 2.706-4.336 2.706-3.253 0-4.548-6.065-4.548-12.317h9.545c.053-1.399.159-3.732.159-6.625 0-12.783-2.195-21.647-6.187-21.647-3.861 0-6.611 9.704-6.611 24.54 0 15.116 2.591 25.007 7.457 25.007Zm-4.39-28.553c0-6.718 1.507-12.037 3.491-12.037 2.194 0 3.199 4.479 3.199 10.264 0 .374 0 1.307-.026 1.773h-6.664ZM516.283 235.252h3.729l7.404-67.183h-3.306l-6.002 57.106h-.159l-1.798-16.703c-3.094-29.299-4.654-50.107-10.683-50.107-4.283 0-6.505 10.264-6.505 22.674 0 7.652.899 14.93 2.618 19.968l2.195-6.251c-1.137-2.893-1.825-8.118-1.825-13.717 0-7.185 1.111-13.25 3.491-13.25 4.151 0 5.262 16.703 8.065 42.176l2.776 25.287ZM531.858 181.412c1.349 0 2.221-3.079 2.221-7.838 0-4.758-.899-7.651-2.221-7.651s-2.274 2.893-2.274 7.651c0 4.759.952 7.838 2.274 7.838Zm-1.454 53.84h2.988v-46.655h-2.988v46.655ZM541.906 236.652c.714 0 1.137-.467 1.587-1.027v-8.398c-.212.187-.397.28-.609.28-.819 0-.899-1.773-.899-8.024l-.026-54.68h-2.988v57.479c0 10.544.793 14.37 2.935 14.37ZM553.541 236.745c2.062 0 3.834-2.986 4.68-8.771h.159c.132 5.505.793 8.678 2.459 8.678.555 0 1.163-.467 1.639-1.027v-7.464c-.211.186-.423.279-.608.279-.846 0-1.031-1.959-1.031-8.304v-31.539h-1.93c-.212 2.706-.397 4.572-.503 7.092h-.158c-.741-4.666-2.354-8.398-4.549-8.398-3.807 0-6.346 10.264-6.346 24.914 0 14.276 2.433 24.54 6.188 24.54Zm.714-9.331c-2.301 0-3.834-6.158-3.834-15.396 0-9.424 1.586-15.396 3.781-15.396 2.353 0 3.86 5.692 3.86 15.209 0 9.331-1.427 15.583-3.807 15.583ZM567.45 181.412c1.348 0 2.221-3.079 2.221-7.838 0-4.758-.899-7.651-2.221-7.651-1.323 0-2.274 2.893-2.274 7.651 0 4.759.951 7.838 2.274 7.838Zm-1.455 53.84h2.988v-46.655h-2.988v46.655ZM575.224 235.252h2.988l.026-23.887c0-8.771 1.507-14.463 3.702-14.463 2.327 0 3.067 6.158 3.067 14.276v24.074h2.988v-25.007c0-15.116-1.903-22.861-5.5-22.861-2.089 0-3.86 3.733-4.653 9.145h-.133c-.132-5.972-.767-9.238-2.485-9.238-.529 0-1.164.466-1.613 1.12v7.371c.211-.093.396-.28.608-.28.846 0 1.005 1.96 1.005 8.305v31.445ZM598.943 236.745c1.613 0 2.935-.84 4.521-3.266v-8.398c-1.56 2.146-3.252 2.706-4.336 2.706-3.253 0-4.548-6.065-4.548-12.317h9.545c.053-1.399.159-3.732.159-6.625 0-12.783-2.195-21.647-6.187-21.647-3.861 0-6.611 9.704-6.611 24.54 0 15.116 2.591 25.007 7.457 25.007Zm-4.39-28.553c0-6.718 1.507-12.037 3.491-12.037 2.194 0 3.199 4.479 3.199 10.264 0 .374 0 1.307-.026 1.773h-6.664Z" style="fill-rule:nonzero" transform="matrix(1.62617 0 0 .46083 -402.598 -20.947)"/><g><path d="m157.266 394.713 23.69-23.689" style="fill:none;stroke:currentColor;stroke-width:1px" transform="rotate(-32.894 -457.526 457.084)"/></g><g><path d="m157.266 394.713 23.69-23.689" style="fill:none;stroke:currentColor;stroke-width:1px" transform="rotate(-32.894 -455.77 451.134)"/></g><g><path d="m157.266 394.713 23.69-23.689" style="fill:none;stroke:currentColor;stroke-width:.87px" transform="rotate(-32.894 -550.403 511.162) scale(1.15092)"/></g><g><path d="m157.266 394.713 23.69-23.689" style="fill:none;stroke:currentColor;stroke-width:.83px" transform="scale(1.20121) rotate(-32.894 -484.706 438.225)"/></g><g><path d="m157.266 394.713 23.69-23.689" style="fill:none;stroke:currentColor;stroke-width:.84px" transform="rotate(-32.894 -580.34 515.125) scale(1.19433)"/></g><g><path d="m157.266 394.713 23.69-23.689" style="fill:none;stroke:currentColor;stroke-width:.84px" transform="rotate(-32.894 -584.157 506.843) scale(1.19522)"/></g><g><path d="m157.266 394.713 23.69-23.689" style="fill:none;stroke:currentColor;stroke-width:.97px" transform="rotate(-32.894 -484.106 423.622) scale(1.02859)"/></g><g><path d="m157.266 394.713 23.69-23.689" style="fill:none;stroke:currentColor;stroke-width:.85px" transform="scale(1.175) rotate(-32.894 -487.363 411.423)"/></g><g><path d="m157.266 394.713 23.69-23.689" style="fill:none;stroke:currentColor;stroke-width:.96px" transform="matrix(.87315 -.56473 .56473 .87315 -304.022 -200.249)"/></g><g><path d="m157.266 394.713 23.69-23.689" style="fill:none;stroke:currentColor;stroke-width:.98px" transform="scale(1.016) rotate(-32.894 -469.079 390.86)"/></g><g><path d="m157.266 394.713 23.69-23.689" style="fill:none;stroke:currentColor;stroke-width:1.18px" transform="rotate(-32.894 -381.531 312.43) scale(.85097)"/></g><g><path d="m157.266 394.713 23.69-23.689" style="fill:none;stroke:currentColor;stroke-width:1.24px" transform="matrix(.67549 -.4369 .4369 .67549 -210.894 -147.196)"/></g><g><path d="m157.266 394.713 23.69-23.689" style="fill:none;stroke:currentColor;stroke-width:1.24px" transform="matrix(.67549 -.4369 .4369 .67549 -207.381 -147.196)"/></g><g><path d="m157.266 394.713 23.69-23.689" style="fill:none;stroke:currentColor;stroke-width:1.43px" transform="scale(.70116) rotate(-32.894 -414.036 319.18)"/></g><g><path d="m157.266 394.713 23.69-23.689" style="fill:none;stroke:currentColor;stroke-width:1.3px" transform="rotate(-32.894 -327.028 248.096) scale(.76639)"/></g><g><path d="m157.266 394.713 23.69-23.689" style="fill:none;stroke:currentColor;stroke-width:1.63px" transform="matrix(.51515 -.3332 .3332 .51515 -130.333 -101.903)"/></g><g><path d="m157.266 394.713 23.69-23.689" style="fill:none;stroke:currentColor;stroke-width:1.78px" transform="rotate(-32.894 -205.693 140.02) scale(.56213)"/></g><g><path d="m157.266 394.713 23.69-23.689" style="fill:none;stroke:currentColor;stroke-width:2.25px" transform="rotate(-32.894 -137.775 77.764) scale(.4445)"/></g><g><path d="m157.266 394.713 23.69-23.689" style="fill:none;stroke:currentColor;stroke-width:1.97px" transform="rotate(-32.894 -169.441 102.383) scale(.50663)"/></g><g><path d="m157.266 394.713 23.69-23.689" style="fill:none;stroke:currentColor;stroke-width:5.2px" transform="rotate(-32.894 14.62 -51.172) scale(.19226)"/></g><g><path d="m157.266 394.713 23.69-23.689" style="fill:none;stroke:currentColor;stroke-width:7.79px" transform="matrix(.10781 -.06973 .06973 .10781 55.604 16.505)"/></g></svg>
